<svg id="Layer_1" enable-background="new 0 0 512 512" height="512" viewBox="0 0 512 512" width="512" xmlns="http://www.w3.org/2000/svg"><path d="m196 391c-41.422 0-75-34.58-75-76 0-41.422 33.578-75 75-75h45v-60h-45c-74.559 0-135 60.441-135 135s60.441 136 135 136h45v-60z" fill="#26bfa6"/><path d="m286 421v30h75v-75l-30 15v30z" fill="#474f54"/><path d="m451 391v-30h-120v30h30z" fill="#76e2f8"/><path d="m181 361h120v136h-120z" fill="#e1ebf0"/><path d="m241 361h60v136h-60z" fill="#cde1e6"/><path d="m357.733 196.597-36.851 25.814-36.86 25.821 51.622 73.711 36.855-25.818 36.855-25.817z" fill="#57d9ad"/><path d="m357.733 196.597-36.851 25.814 51.617 73.714 36.855-25.817z" fill="#26bfa6"/><path d="m220.082 0-36.863 25.818-36.863 25.818 51.636 73.711 36.847-25.813 36.864-25.823z" fill="#575f64"/><path d="m220.082 0-36.863 25.818 51.62 73.716 36.864-25.823z" fill="#474f54"/><path d="m279.086 31.948-61.454 43.015-61.432 43.001 120.454 172.031 61.43-43.019 61.441-43.026z" fill="#e1ebf0"/><path d="m279.086 31.948-61.454 43.015 120.452 172.013 61.441-43.026z" fill="#cde1e6"/><path d="m91 482h330v30h-330z" fill="#575f64"/><path d="m241 482h180v30h-180z" fill="#474f54"/><path d="m211 270c-33.091 0-60-26.909-60-60s26.909-60 60-60 60 26.909 60 60-26.909 60-60 60z" fill="#575f64"/><path d="m211 180c-16.538 0-30 13.462-30 30s13.462 30 30 30 30-13.462 30-30-13.462-30-30-30z" fill="#e1ebf0"/></svg>